<svg xmlns="http://www.w3.org/2000/svg">
  <defs>
    <linearGradient id="max-gradient-a">
      <stop offset="0" stop-color="#00f" />
      <stop offset="1" stop-opacity="0" />
    </linearGradient>
    <linearGradient id="max-gradient-b">
      <stop offset="0" stop-color="#4cf" />
      <stop offset=".662" stop-color="#53e" />
      <stop offset="1" stop-color="#93d" />
    </linearGradient>
    <linearGradient id="max-gradient-c" x1="5.657" x2="48" y1="36.506" y2="24" gradientUnits="userSpaceOnUse" href="#max-gradient-b" />
    <radialGradient id="max-gradient-d" cx="-4.195" cy="55.974" r="24" fx="-4.195" fy="55.974" gradientTransform="rotate(51.356 74.47 26.846)scale(2.42703433 1)" gradientUnits="userSpaceOnUse" href="#max-gradient-a" />
  </defs>

  <symbol id="logo-telegram" viewBox="0 0 48 48">
    <circle cx="24" cy="24" r="24" fill="#229ED9" />
    <path d="M34.5 14.7 12.1 23.35c-1.52.6-1.5 1.45-.28 1.82l5.75 1.8 2.2 7.02c.27.75.14 1.05.91 1.05.6 0 .86-.27 1.18-.6l2.8-2.7 5.8 4.28c1.07.59 1.85.27 2.1-.98l3.82-17.93c.39-1.56-.6-2.25-1.88-1.7Z" fill="#fff" />
    <path d="m18.04 26.55 13.32-8.4c.62-.38 1.18-.17.72.25L20.7 28.68l-.46 4.74-2.2-6.87Z" fill="#D7F0FF" />
  </symbol>

  <symbol id="logo-vk" viewBox="0 0 48 48">
    <rect width="48" height="48" rx="11" fill="#0077FF" />
    <text
      x="24"
      y="29"
      fill="#fff"
      font-family="Arial, Helvetica, sans-serif"
      font-size="17"
      font-weight="700"
      text-anchor="middle"
      letter-spacing="-1"
    >vk</text>
  </symbol>

  <symbol id="logo-instagram" viewBox="0 0 48 48">
    <defs>
      <linearGradient id="instagram-gradient" x1="7" y1="43" x2="41" y2="5" gradientUnits="userSpaceOnUse">
        <stop stop-color="#FEDA75" />
        <stop offset=".25" stop-color="#FA7E1E" />
        <stop offset=".48" stop-color="#D62976" />
        <stop offset=".72" stop-color="#962FBF" />
        <stop offset="1" stop-color="#4F5BD5" />
      </linearGradient>
    </defs>
    <rect width="48" height="48" rx="13" fill="url(#instagram-gradient)" />
    <rect x="13.5" y="13.5" width="21" height="21" rx="6.5" fill="none" stroke="#fff" stroke-width="3" />
    <circle cx="24" cy="24" r="5.1" fill="none" stroke="#fff" stroke-width="3" />
    <circle cx="31.6" cy="16.5" r="2" fill="#fff" />
  </symbol>

  <symbol id="logo-max" viewBox="0 0 48 48">
    <rect width="48" height="48" fill="url(#max-gradient-c)" rx="11.984" />
    <rect width="48" height="48" fill="url(#max-gradient-d)" rx="11.984" />
    <path
      fill="#fff"
      fill-rule="evenodd"
      d="M24.394 42.16c-3.6 0-5.273-.526-8.182-2.628-1.84 2.365-7.665 4.213-7.919 1.051 0-2.374-.526-4.38-1.121-6.57-.71-2.698-1.516-5.702-1.516-10.056 0-10.398 8.532-18.22 18.641-18.22 10.118 0 18.045 8.208 18.045 18.317.034 9.953-7.996 18.054-17.948 18.106m.149-27.436c-4.923-.254-8.76 3.154-9.61 8.497-.7 4.424.543 9.812 1.603 10.092.508.123 1.787-.91 2.584-1.708a9.11 9.11 0 0 0 4.45 1.586c5.102.245 9.461-3.638 9.803-8.733.2-5.106-3.728-9.43-8.83-9.724Z"
      clip-rule="evenodd"
    />
  </symbol>
</svg>
